# xmcd
#
# Track frame offsets:
#	150
#	11697
#	30991
#	45941
#	61040
#	75342
#	90762
#	105056
#	117283
#	129453
#
# Disc length: 1956 seconds
#
# Revision: 0
# Processed by: cddbd v1.5.2PL0 Copyright (c) Steve Scherf et al.
# Submitted via: EasyCDDAExtractor 10.5.1.1
#
DISCID=5707a20a
DTITLE=LeAnn Rimes - Unchained Melody (The Early Years)
DYEAR=1997
DGENRE=Country
TTITLE0=Cowboy's Sweetheart
TTITLE1=I Will Always Love You
TTITLE2=Blue Moon Of Kentucky
TTITLE3=River Of Love
TTITLE4=The Rest Is History
TTITLE5=Broken Wing
TTITLE6=Yesterday
TTITLE7=Sure Thing
TTITLE8=Share My Love
TTITLE9=Unchained Melody
EXTD=
EXTT0=
EXTT1=
EXTT2=
EXTT3=
EXTT4=
EXTT5=
EXTT6=
EXTT7=
EXTT8=
EXTT9=
PLAYORDER=
